# xmcd
#
# Track frame offsets:
#	150
#	17990
#	34197
#	50947
#	64569
#	90055
#	103512
#	117403
#	132824
#	145806
#	164306
#	180729
#	201631
#	219441
#
# Disc length: 3084 seconds
#
# Revision: 0
# Processed by: cddbd v1.4PL0 Copyright (c) Steve Scherf et al.
# Submitted via: dBpowerAMP V4.0
#
DISCID=c80c0a0e
DTITLE=Isla Grant - A Dream Come True
DYEAR=1900
DGENRE=Country
TTITLE0=Circle Of Gold
TTITLE1=It's A Dream Come True
TTITLE2=You're Always There For Me
TTITLE3=Will You Love Me
TTITLE4=Island Of Memories
TTITLE5=We'll Meet Again My Friends
TTITLE6=The Keeper Of My Heart
TTITLE7=I Miss The Biggest Part Of Me
TTITLE8=My World Revolves Around You
TTITLE9=Within My Fathers Arms
TTITLE10=Spending Time With My Firends
TTITLE11=This Wonderful Land
TTITLE12=Fiddle On The Wall
TTITLE13=Precious Lord Please Lead Me
EXTD=
EXTT0=
EXTT1=
EXTT2=
EXTT3=
EXTT4=
EXTT5=
EXTT6=
EXTT7=
EXTT8=
EXTT9=
EXTT10=
EXTT11=
EXTT12=
EXTT13=
PLAYORDER=
